# xmcd
#
# Track frame offsets:
#	150
#	13975
#	36570
#	47297
#	60052
#	71177
#	87365
#	99967
#	116482
#	130990
#
# Disc length: 1897 seconds
#
# Revision: 0
# Processed by: cddbd v1.5.2PL0 Copyright (c) Steve Scherf et al.
# Submitted via: EasyCDDAExtractor 12.0.1.1
#
DISCID=8007670a
DTITLE=Tex Warner - White cadillac and country songs
DYEAR=1900
DGENRE=Country
TTITLE0=I'll sing country music
TTITLE1=Crying eyes
TTITLE2=Lonely country boy
TTITLE3=I can't help it
TTITLE4=Steel guitar rag
TTITLE5=Funny how time slips away
TTITLE6=A white cadillac
TTITLE7=For the good times
TTITLE8=Jambalaya
TTITLE9=Story of my fiddle
EXTD=
EXTT0=
EXTT1=
EXTT2=
EXTT3=
EXTT4=
EXTT5=
EXTT6=
EXTT7=
EXTT8=
EXTT9=
PLAYORDER=
